<svg width="595" height="621" xmlns="http://www.w3.org/2000/svg" xmlns:xlink="http://www.w3.org/1999/xlink" xml:space="preserve" overflow="hidden"><g transform="translate(-184 -920)"><path d="M295 979 429.578 1230.29" stroke="#171717" stroke-width="13.75" stroke-linejoin="round" stroke-miterlimit="10" fill="#FFFFFF" fill-rule="evenodd"/><path d="M295 1104 429.578 1230.7" stroke="#171717" stroke-width="13.75" stroke-linejoin="round" stroke-miterlimit="10" fill="#FFFFFF" fill-rule="evenodd"/><path d="M295 1228 429.578 1230.11" stroke="#171717" stroke-width="13.75" stroke-linejoin="round" stroke-miterlimit="10" fill="#FFFFFF" fill-rule="evenodd"/><path d="M0 0 134.578 122.485" stroke="#171717" stroke-width="13.75" stroke-linejoin="round" stroke-miterlimit="10" fill="#FFFFFF" fill-rule="evenodd" transform="matrix(1 0 0 -1 295 1352.48)"/><path d="M0 0 134.578 247.665" stroke="#171717" stroke-width="13.75" stroke-linejoin="round" stroke-miterlimit="10" fill="#FFFFFF" fill-rule="evenodd" transform="matrix(1 0 0 -1 295 1477.66)"/><path d="M0 0 134.578 247.336" stroke="#171717" stroke-width="13.75" stroke-linejoin="round" stroke-miterlimit="10" fill="#FFFFFF" fill-rule="evenodd" transform="matrix(-1 0 0 1 667.578 983)"/><path d="M0 0 134.578 122.743" stroke="#171717" stroke-width="13.75" stroke-linejoin="round" stroke-miterlimit="10" fill="#FFFFFF" fill-rule="evenodd" transform="matrix(-1 0 0 1 667.578 1108)"/><path d="M667.578 1231.85 533 1230" stroke="#171717" stroke-width="13.75" stroke-linejoin="round" stroke-miterlimit="10" fill="#FFFFFF" fill-rule="evenodd"/><path d="M667.578 1356.44 533 1230" stroke="#171717" stroke-width="13.75" stroke-linejoin="round" stroke-miterlimit="10" fill="#FFFFFF" fill-rule="evenodd"/><path d="M667.578 1481.62 533 1230" stroke="#171717" stroke-width="13.75" stroke-linejoin="round" stroke-miterlimit="10" fill="#FFFFFF" fill-rule="evenodd"/><path d="M191 979C191 950.281 214.281 927 243 927 271.719 927 295 950.281 295 979 295 1007.72 271.719 1031 243 1031 214.281 1031 191 1007.72 191 979Z" stroke="#171717" stroke-width="13.75" stroke-linejoin="round" stroke-miterlimit="10" fill="#FFFFFF" fill-rule="evenodd"/><path d="M191 1104C191 1075.28 214.281 1052 243 1052 271.719 1052 295 1075.28 295 1104 295 1132.72 271.719 1156 243 1156 214.281 1156 191 1132.72 191 1104Z" stroke="#171717" stroke-width="13.75" stroke-linejoin="round" stroke-miterlimit="10" fill="#FFFFFF" fill-rule="evenodd"/><path d="M191 1228C191 1199.28 214.281 1176 243 1176 271.719 1176 295 1199.28 295 1228 295 1256.72 271.719 1280 243 1280 214.281 1280 191 1256.72 191 1228Z" stroke="#171717" stroke-width="13.75" stroke-linejoin="round" stroke-miterlimit="10" fill="#FFFFFF" fill-rule="evenodd"/><path d="M191 1353C191 1324.28 214.281 1301 243 1301 271.719 1301 295 1324.28 295 1353 295 1381.72 271.719 1405 243 1405 214.281 1405 191 1381.72 191 1353Z" stroke="#171717" stroke-width="13.75" stroke-linejoin="round" stroke-miterlimit="10" fill="#FFFFFF" fill-rule="evenodd"/><path d="M191 1478C191 1449.28 214.281 1426 243 1426 271.719 1426 295 1449.28 295 1478 295 1506.72 271.719 1530 243 1530 214.281 1530 191 1506.72 191 1478Z" stroke="#171717" stroke-width="13.75" stroke-linejoin="round" stroke-miterlimit="10" fill="#FFFFFF" fill-rule="evenodd"/><path d="M668 983C668 954.281 691.281 931 720 931 748.719 931 772 954.281 772 983 772 1011.72 748.719 1035 720 1035 691.281 1035 668 1011.72 668 983Z" stroke="#171717" stroke-width="13.75" stroke-linejoin="round" stroke-miterlimit="10" fill="#FFFFFF" fill-rule="evenodd"/><path d="M668 1108C668 1079.28 691.281 1056 720 1056 748.719 1056 772 1079.28 772 1108 772 1136.72 748.719 1160 720 1160 691.281 1160 668 1136.72 668 1108Z" stroke="#171717" stroke-width="13.75" stroke-linejoin="round" stroke-miterlimit="10" fill="#FFFFFF" fill-rule="evenodd"/><path d="M668 1232C668 1203.28 691.281 1180 720 1180 748.719 1180 772 1203.28 772 1232 772 1260.72 748.719 1284 720 1284 691.281 1284 668 1260.72 668 1232Z" stroke="#171717" stroke-width="13.75" stroke-linejoin="round" stroke-miterlimit="10" fill="#FFFFFF" fill-rule="evenodd"/><path d="M668 1357C668 1328.28 691.281 1305 720 1305 748.719 1305 772 1328.28 772 1357 772 1385.72 748.719 1409 720 1409 691.281 1409 668 1385.72 668 1357Z" stroke="#171717" stroke-width="13.75" stroke-linejoin="round" stroke-miterlimit="10" fill="#FFFFFF" fill-rule="evenodd"/><path d="M668 1482C668 1453.28 691.281 1430 720 1430 748.719 1430 772 1453.28 772 1482 772 1510.72 748.719 1534 720 1534 691.281 1534 668 1510.72 668 1482Z" stroke="#171717" stroke-width="13.75" stroke-linejoin="round" stroke-miterlimit="10" fill="#FFFFFF" fill-rule="evenodd"/><path d="M429 1230C429 1201.28 452.281 1178 481 1178 509.719 1178 533 1201.28 533 1230 533 1258.72 509.719 1282 481 1282 452.281 1282 429 1258.72 429 1230Z" stroke="#171717" stroke-width="13.75" stroke-linejoin="round" stroke-miterlimit="10" fill="#FFFFFF" fill-rule="evenodd"/></g></svg>