<svg width="588" height="614" xmlns="http://www.w3.org/2000/svg" xmlns:xlink="http://www.w3.org/1999/xlink" xml:space="preserve" overflow="hidden"><g transform="translate(-3154 -974)"><path d="M3261 1029 3395.58 1280.29" stroke="#FFFFFF" stroke-width="13.75" stroke-linejoin="round" stroke-miterlimit="10" fill="#FFFFFF" fill-rule="evenodd"/><path d="M3261 1153 3395.58 1279.7" stroke="#FFFFFF" stroke-width="13.75" stroke-linejoin="round" stroke-miterlimit="10" fill="#FFFFFF" fill-rule="evenodd"/><path d="M3261 1278 3395.58 1280.11" stroke="#FFFFFF" stroke-width="13.75" stroke-linejoin="round" stroke-miterlimit="10" fill="#FFFFFF" fill-rule="evenodd"/><path d="M0 0 134.578 122.485" stroke="#FFFFFF" stroke-width="13.75" stroke-linejoin="round" stroke-miterlimit="10" fill="#FFFFFF" fill-rule="evenodd" transform="matrix(1 0 0 -1 3261 1402.48)"/><path d="M0 0 134.578 247.665" stroke="#FFFFFF" stroke-width="13.75" stroke-linejoin="round" stroke-miterlimit="10" fill="#FFFFFF" fill-rule="evenodd" transform="matrix(1 0 0 -1 3261 1527.67)"/><path d="M0 0 134.578 247.336" stroke="#FFFFFF" stroke-width="13.75" stroke-linejoin="round" stroke-miterlimit="10" fill="#FFFFFF" fill-rule="evenodd" transform="matrix(-1 0 0 1 3634.58 1033)"/><path d="M0 0 134.578 122.743" stroke="#FFFFFF" stroke-width="13.75" stroke-linejoin="round" stroke-miterlimit="10" fill="#FFFFFF" fill-rule="evenodd" transform="matrix(-1 0 0 1 3634.58 1157)"/><path d="M3634.58 1281.85 3500 1280" stroke="#FFFFFF" stroke-width="13.75" stroke-linejoin="round" stroke-miterlimit="10" fill="#FFFFFF" fill-rule="evenodd"/><path d="M3634.58 1406.44 3500 1280" stroke="#FFFFFF" stroke-width="13.75" stroke-linejoin="round" stroke-miterlimit="10" fill="#FFFFFF" fill-rule="evenodd"/><path d="M3634.58 1531.62 3500 1280" stroke="#FFFFFF" stroke-width="13.75" stroke-linejoin="round" stroke-miterlimit="10" fill="#FFFFFF" fill-rule="evenodd"/><path d="M3157.5 1029.5C3157.5 1000.78 3180.78 977.5 3209.5 977.5 3238.22 977.5 3261.5 1000.78 3261.5 1029.5 3261.5 1058.22 3238.22 1081.5 3209.5 1081.5 3180.78 1081.5 3157.5 1058.22 3157.5 1029.5Z" stroke="#FFFFFF" stroke-width="6.875" stroke-linejoin="round" stroke-miterlimit="10" fill="#FFFFFF" fill-rule="evenodd"/><path d="M3157.5 1153.5C3157.5 1124.78 3180.78 1101.5 3209.5 1101.5 3238.22 1101.5 3261.5 1124.78 3261.5 1153.5 3261.5 1182.22 3238.22 1205.5 3209.5 1205.5 3180.78 1205.5 3157.5 1182.22 3157.5 1153.5Z" stroke="#FFFFFF" stroke-width="6.875" stroke-linejoin="round" stroke-miterlimit="10" fill="#FFFFFF" fill-rule="evenodd"/><path d="M3157.5 1278.5C3157.5 1249.78 3180.78 1226.5 3209.5 1226.5 3238.22 1226.5 3261.5 1249.78 3261.5 1278.5 3261.5 1307.22 3238.22 1330.5 3209.5 1330.5 3180.78 1330.5 3157.5 1307.22 3157.5 1278.5Z" stroke="#FFFFFF" stroke-width="6.875" stroke-linejoin="round" stroke-miterlimit="10" fill="#FFFFFF" fill-rule="evenodd"/><path d="M3157.5 1403.5C3157.5 1374.78 3180.78 1351.5 3209.5 1351.5 3238.22 1351.5 3261.5 1374.78 3261.5 1403.5 3261.5 1432.22 3238.22 1455.5 3209.5 1455.5 3180.78 1455.5 3157.5 1432.22 3157.5 1403.5Z" stroke="#FFFFFF" stroke-width="6.875" stroke-linejoin="round" stroke-miterlimit="10" fill="#FFFFFF" fill-rule="evenodd"/><path d="M3157.5 1528.5C3157.5 1499.78 3180.78 1476.5 3209.5 1476.5 3238.22 1476.5 3261.5 1499.78 3261.5 1528.5 3261.5 1557.22 3238.22 1580.5 3209.5 1580.5 3180.78 1580.5 3157.5 1557.22 3157.5 1528.5Z" stroke="#FFFFFF" stroke-width="6.875" stroke-linejoin="round" stroke-miterlimit="10" fill="#FFFFFF" fill-rule="evenodd"/><path d="M3634.5 1033.5C3634.5 1004.78 3657.78 981.5 3686.5 981.5 3715.22 981.5 3738.5 1004.78 3738.5 1033.5 3738.5 1062.22 3715.22 1085.5 3686.5 1085.5 3657.78 1085.5 3634.5 1062.22 3634.5 1033.5Z" stroke="#FFFFFF" stroke-width="6.875" stroke-linejoin="round" stroke-miterlimit="10" fill="#FFFFFF" fill-rule="evenodd"/><path d="M3634.5 1157.5C3634.5 1128.78 3657.78 1105.5 3686.5 1105.5 3715.22 1105.5 3738.5 1128.78 3738.5 1157.5 3738.5 1186.22 3715.22 1209.5 3686.5 1209.5 3657.78 1209.5 3634.5 1186.22 3634.5 1157.5Z" stroke="#FFFFFF" stroke-width="6.875" stroke-linejoin="round" stroke-miterlimit="10" fill="#FFFFFF" fill-rule="evenodd"/><path d="M3634.5 1282.5C3634.5 1253.78 3657.78 1230.5 3686.5 1230.5 3715.22 1230.5 3738.5 1253.78 3738.5 1282.5 3738.5 1311.22 3715.22 1334.5 3686.5 1334.5 3657.78 1334.5 3634.5 1311.22 3634.5 1282.5Z" stroke="#FFFFFF" stroke-width="6.875" stroke-linejoin="round" stroke-miterlimit="10" fill="#FFFFFF" fill-rule="evenodd"/><path d="M3634.5 1407.5C3634.5 1378.78 3657.78 1355.5 3686.5 1355.5 3715.22 1355.5 3738.5 1378.78 3738.5 1407.5 3738.5 1436.22 3715.22 1459.5 3686.5 1459.5 3657.78 1459.5 3634.5 1436.22 3634.5 1407.5Z" stroke="#FFFFFF" stroke-width="6.875" stroke-linejoin="round" stroke-miterlimit="10" fill="#FFFFFF" fill-rule="evenodd"/><path d="M3634.5 1532.5C3634.5 1503.78 3657.78 1480.5 3686.5 1480.5 3715.22 1480.5 3738.5 1503.78 3738.5 1532.5 3738.5 1561.22 3715.22 1584.5 3686.5 1584.5 3657.78 1584.5 3634.5 1561.22 3634.5 1532.5Z" stroke="#FFFFFF" stroke-width="6.875" stroke-linejoin="round" stroke-miterlimit="10" fill="#FFFFFF" fill-rule="evenodd"/><path d="M3396.5 1280.5C3396.5 1251.78 3419.78 1228.5 3448.5 1228.5 3477.22 1228.5 3500.5 1251.78 3500.5 1280.5 3500.5 1309.22 3477.22 1332.5 3448.5 1332.5 3419.78 1332.5 3396.5 1309.22 3396.5 1280.5Z" stroke="#FFFFFF" stroke-width="6.875" stroke-linejoin="round" stroke-miterlimit="10" fill="#FFFFFF" fill-rule="evenodd"/></g></svg>