<svg width="588" height="614" xmlns="http://www.w3.org/2000/svg" xmlns:xlink="http://www.w3.org/1999/xlink" xml:space="preserve" overflow="hidden"><g transform="translate(-959 -965)"><path d="M1066 1020 1200.58 1271.29" stroke="#171717" stroke-width="13.75" stroke-linejoin="round" stroke-miterlimit="10" fill="#DDDDDD" fill-rule="evenodd"/><path d="M1066 1144 1200.58 1270.7" stroke="#171717" stroke-width="13.75" stroke-linejoin="round" stroke-miterlimit="10" fill="#DDDDDD" fill-rule="evenodd"/><path d="M1066 1269 1200.58 1271.11" stroke="#171717" stroke-width="13.75" stroke-linejoin="round" stroke-miterlimit="10" fill="#DDDDDD" fill-rule="evenodd"/><path d="M0 0 134.578 122.485" stroke="#171717" stroke-width="13.75" stroke-linejoin="round" stroke-miterlimit="10" fill="#DDDDDD" fill-rule="evenodd" transform="matrix(1 0 0 -1 1066 1393.48)"/><path d="M0 0 134.578 247.665" stroke="#171717" stroke-width="13.75" stroke-linejoin="round" stroke-miterlimit="10" fill="#DDDDDD" fill-rule="evenodd" transform="matrix(1 0 0 -1 1066 1518.66)"/><path d="M0 0 134.578 247.336" stroke="#171717" stroke-width="13.75" stroke-linejoin="round" stroke-miterlimit="10" fill="#DDDDDD" fill-rule="evenodd" transform="matrix(-1 0 0 1 1439.58 1024)"/><path d="M0 0 134.578 122.743" stroke="#171717" stroke-width="13.75" stroke-linejoin="round" stroke-miterlimit="10" fill="#DDDDDD" fill-rule="evenodd" transform="matrix(-1 0 0 1 1439.58 1148)"/><path d="M1439.58 1272.85 1305 1271" stroke="#171717" stroke-width="13.75" stroke-linejoin="round" stroke-miterlimit="10" fill="#DDDDDD" fill-rule="evenodd"/><path d="M1439.58 1397.44 1305 1271" stroke="#171717" stroke-width="13.75" stroke-linejoin="round" stroke-miterlimit="10" fill="#DDDDDD" fill-rule="evenodd"/><path d="M1439.58 1522.62 1305 1271" stroke="#171717" stroke-width="13.75" stroke-linejoin="round" stroke-miterlimit="10" fill="#DDDDDD" fill-rule="evenodd"/><path d="M962.5 1020.5C962.5 991.781 985.781 968.5 1014.5 968.5 1043.22 968.5 1066.5 991.781 1066.5 1020.5 1066.5 1049.22 1043.22 1072.5 1014.5 1072.5 985.781 1072.5 962.5 1049.22 962.5 1020.5Z" stroke="#171717" stroke-width="6.875" stroke-linejoin="round" stroke-miterlimit="10" fill="#171717" fill-rule="evenodd"/><path d="M962.5 1145C962.5 1116.56 985.781 1093.5 1014.5 1093.5 1043.22 1093.5 1066.5 1116.56 1066.5 1145 1066.5 1173.44 1043.22 1196.5 1014.5 1196.5 985.781 1196.5 962.5 1173.44 962.5 1145Z" stroke="#171717" stroke-width="6.875" stroke-linejoin="round" stroke-miterlimit="10" fill="#171717" fill-rule="evenodd"/><path d="M962.5 1269.5C962.5 1240.78 985.781 1217.5 1014.5 1217.5 1043.22 1217.5 1066.5 1240.78 1066.5 1269.5 1066.5 1298.22 1043.22 1321.5 1014.5 1321.5 985.781 1321.5 962.5 1298.22 962.5 1269.5Z" stroke="#171717" stroke-width="6.875" stroke-linejoin="round" stroke-miterlimit="10" fill="#171717" fill-rule="evenodd"/><path d="M962.5 1394.5C962.5 1365.78 985.781 1342.5 1014.5 1342.5 1043.22 1342.5 1066.5 1365.78 1066.5 1394.5 1066.5 1423.22 1043.22 1446.5 1014.5 1446.5 985.781 1446.5 962.5 1423.22 962.5 1394.5Z" stroke="#171717" stroke-width="6.875" stroke-linejoin="round" stroke-miterlimit="10" fill="#171717" fill-rule="evenodd"/><path d="M962.5 1519.5C962.5 1490.78 985.781 1467.5 1014.5 1467.5 1043.22 1467.5 1066.5 1490.78 1066.5 1519.5 1066.5 1548.22 1043.22 1571.5 1014.5 1571.5 985.781 1571.5 962.5 1548.22 962.5 1519.5Z" stroke="#171717" stroke-width="6.875" stroke-linejoin="round" stroke-miterlimit="10" fill="#171717" fill-rule="evenodd"/><path d="M1439.5 1024.5C1439.5 995.781 1462.78 972.5 1491.5 972.5 1520.22 972.5 1543.5 995.781 1543.5 1024.5 1543.5 1053.22 1520.22 1076.5 1491.5 1076.5 1462.78 1076.5 1439.5 1053.22 1439.5 1024.5Z" stroke="#171717" stroke-width="6.875" stroke-linejoin="round" stroke-miterlimit="10" fill="#171717" fill-rule="evenodd"/><path d="M1439.5 1148.5C1439.5 1119.78 1462.78 1096.5 1491.5 1096.5 1520.22 1096.5 1543.5 1119.78 1543.5 1148.5 1543.5 1177.22 1520.22 1200.5 1491.5 1200.5 1462.78 1200.5 1439.5 1177.22 1439.5 1148.5Z" stroke="#171717" stroke-width="6.875" stroke-linejoin="round" stroke-miterlimit="10" fill="#171717" fill-rule="evenodd"/><path d="M1439.5 1273.5C1439.5 1244.78 1462.78 1221.5 1491.5 1221.5 1520.22 1221.5 1543.5 1244.78 1543.5 1273.5 1543.5 1302.22 1520.22 1325.5 1491.5 1325.5 1462.78 1325.5 1439.5 1302.22 1439.5 1273.5Z" stroke="#171717" stroke-width="6.875" stroke-linejoin="round" stroke-miterlimit="10" fill="#171717" fill-rule="evenodd"/><path d="M1439.5 1398.5C1439.5 1369.78 1462.78 1346.5 1491.5 1346.5 1520.22 1346.5 1543.5 1369.78 1543.5 1398.5 1543.5 1427.22 1520.22 1450.5 1491.5 1450.5 1462.78 1450.5 1439.5 1427.22 1439.5 1398.5Z" stroke="#171717" stroke-width="6.875" stroke-linejoin="round" stroke-miterlimit="10" fill="#171717" fill-rule="evenodd"/><path d="M1439.5 1523.5C1439.5 1494.78 1462.78 1471.5 1491.5 1471.5 1520.22 1471.5 1543.5 1494.78 1543.5 1523.5 1543.5 1552.22 1520.22 1575.5 1491.5 1575.5 1462.78 1575.5 1439.5 1552.22 1439.5 1523.5Z" stroke="#171717" stroke-width="6.875" stroke-linejoin="round" stroke-miterlimit="10" fill="#171717" fill-rule="evenodd"/><path d="M1201.5 1271.5C1201.5 1242.78 1224.78 1219.5 1253.5 1219.5 1282.22 1219.5 1305.5 1242.78 1305.5 1271.5 1305.5 1300.22 1282.22 1323.5 1253.5 1323.5 1224.78 1323.5 1201.5 1300.22 1201.5 1271.5Z" stroke="#171717" stroke-width="6.875" stroke-linejoin="round" stroke-miterlimit="10" fill="#171717" fill-rule="evenodd"/></g></svg>